<?xml version="1.0" standalone="no"?>
<!DOCTYPE svg PUBLIC "-//W3C//DTD SVG 20010904//EN"
 "http://www.w3.org/TR/2001/REC-SVG-20010904/DTD/svg10.dtd">
<svg version="1.0" xmlns="http://www.w3.org/2000/svg"
 width="1200.000000pt" height="1200.000000pt" viewBox="0 0 1200.000000 1200.000000"
 preserveAspectRatio="xMidYMid meet">
<metadata>
Created by potrace 1.11, written by Peter Selinger 2001-2013
</metadata>
<g transform="translate(0.000000,1200.000000) scale(0.100000,-0.100000)"
fill="#000000" stroke="none">
<path d="M5716 11923 c-2 -2 -35 -6 -72 -8 -108 -6 -218 -16 -234 -20 -8 -2
-46 -6 -85 -10 -38 -3 -110 -12 -160 -20 -49 -7 -107 -16 -127 -19 -21 -3 -55
-9 -75 -12 -281 -43 -720 -163 -1048 -286 -169 -64 -179 -68 -375 -156 -962
-433 -1810 -1147 -2437 -2050 -56 -81 -108 -158 -115 -172 -7 -14 -15 -27 -18
-30 -6 -6 -12 -16 -88 -145 -308 -522 -517 -1048 -664 -1665 -16 -69 -31 -136
-33 -150 -2 -14 -6 -34 -8 -45 -2 -11 -7 -36 -11 -55 -3 -19 -8 -44 -10 -55
-2 -11 -7 -42 -10 -69 -4 -27 -9 -52 -10 -55 -2 -3 -7 -37 -11 -76 -4 -38 -8
-72 -10 -75 -1 -3 -6 -40 -10 -83 -3 -43 -8 -88 -10 -100 -2 -12 -6 -60 -10
-107 -3 -47 -8 -107 -11 -135 -7 -69 -12 -608 -5 -619 2 -6 6 -26 7 -45 22
-309 24 -330 55 -536 56 -378 114 -625 237 -1000 133 -410 323 -822 555 -1205
65 -108 224 -349 236 -360 3 -3 22 -27 40 -55 19 -27 54 -75 78 -105 24 -30
47 -59 51 -65 18 -24 89 -112 109 -135 12 -14 31 -36 43 -50 138 -165 388
-422 560 -575 36 -32 83 -74 105 -93 22 -20 92 -77 155 -126 63 -50 122 -96
130 -103 157 -124 478 -333 695 -453 179 -98 540 -272 635 -305 3 -1 14 -5 25
-10 205 -85 583 -206 830 -265 75 -17 220 -49 255 -55 123 -22 148 -26 175
-30 17 -2 48 -7 70 -10 75 -12 90 -14 140 -20 85 -10 253 -26 325 -30 25 -1
75 -6 110 -10 81 -10 564 -12 605 -3 17 3 76 9 132 13 55 3 112 8 125 10 12 2
59 6 103 10 43 4 82 8 85 10 3 1 32 5 65 9 33 3 69 8 80 10 35 6 104 18 128
21 12 1 63 10 112 20 50 9 101 19 114 21 66 13 291 70 411 104 565 164 1079
400 1595 734 61 39 115 74 120 79 6 4 66 48 133 98 68 49 129 94 135 99 7 6
55 44 107 87 161 130 248 209 450 412 217 218 225 226 371 402 623 743 1055
1636 1249 2584 16 77 31 154 33 170 3 17 10 59 16 95 14 92 21 145 35 268 5
38 12 116 21 220 3 31 8 84 11 117 8 69 8 603 1 655 -3 19 -8 78 -12 130 -13
186 -39 400 -66 555 -6 33 -13 74 -16 90 -2 17 -18 91 -34 165 -17 74 -32 144
-34 155 -22 103 -156 547 -184 610 -5 11 -32 79 -60 152 -78 201 -213 493
-298 643 -11 19 -35 62 -53 95 -72 130 -264 433 -322 510 -5 6 -54 71 -110
145 -243 322 -522 623 -833 896 -214 188 -378 314 -631 482 -619 412 -1287
695 -2009 852 -144 31 -126 28 -230 45 -168 28 -254 40 -350 50 -33 3 -73 8
-90 10 -16 2 -73 7 -125 11 -52 3 -108 8 -125 11 -37 6 -623 12 -629 6z"/>
</g>
</svg>
